# xmcd
#
# Track frame offsets:
# 150
# 20687
# 38649
# 54962
# 77252
# 90546
# 106801
# 120568
# 139788
# 163989
# 194677
# 209202
#
# Disc length: 2900 seconds
#
#
# Revision: 3
# Processed by: cddbd v1.5.1PL2 Copyright (c) Steve Scherf et al.
# Submitted via: FreeRIP 2.945 
#
DISCID=a00b520c
DTITLE=The Charlie Daniels Band - Redneck Fiddlin' Man
DYEAR=2002
DGENRE=Country
TTITLE0=Rock This Joint
TTITLE1=Waco
TTITLE2=Little Joe And Big Bill
TTITLE3=The Last Fallen Hero
TTITLE4=Southern Boy (With Travis Tritt)
TTITLE5=High Speed Heroes
TTITLE6=Fais Do Do
TTITLE7=Muddy Mississippi
TTITLE8=Redneck Fiddlin' Man
TTITLE9=Crosstown Traffic
TTITLE10=My Baby Plays Me Just Like A Fiddle
TTITLE11=Star Spangled Banner
EXTD=scanner1 Rip YEAR: 2002
EXTT0=
EXTT1=
EXTT2=
EXTT3=
EXTT4=
EXTT5=
EXTT6=
EXTT7=
EXTT8=
EXTT9=
EXTT10=
EXTT11=
PLAYORDER=
